<svg width="256" height="256" viewBox="0 0 256 256" fill="none" xmlns="http://www.w3.org/2000/svg">
<g clip-path="url(#clip0_1_2)">
<rect width="256" height="256" fill="white"/>
<path d="M167.667 207.333V227.167H88.3333V207.333H167.667ZM88.3333 207.333H48.6667V187.5H88.3333V207.333ZM207.333 207.333H167.667V187.5H207.333V207.333ZM48.6667 187.5H28.8333V167.667H48.6667V187.5ZM167.667 187.5H88.3333V167.667H167.667V187.5ZM227.167 187.5H207.333V167.667H227.167V187.5ZM88.3333 167.667H48.6667V147.833H88.3333V167.667ZM207.333 167.667H167.667V147.833H207.333V167.667ZM48.6667 147.833H28.8333V128H48.6667V147.833ZM167.667 48.6667H207.333V68.5H227.167V108.167H207.333V128H167.667V147.833H88.3333V128H48.6667V108.167H28.8333V68.5H48.6667V48.6667H88.3333V28.8333H167.667V48.6667ZM227.167 147.833H207.333V128H227.167V147.833Z" fill="black"/>
<rect width="20" height="20" fill="black"/>
<rect x="236" width="20" height="20" fill="black"/>
<rect x="236" y="236" width="20" height="20" fill="black"/>
<rect y="236" width="20" height="20" fill="black"/>
</g>
<defs>
<clipPath id="clip0_1_2">
<rect width="256" height="256" fill="white"/>
</clipPath>
</defs>
</svg>
